<svg xmlns="http://www.w3.org/2000/svg" width="292" height="92pt" viewBox="0 0 219 92">
    
   
    <g clip-path="url(#c)">
        <path style="stroke:none;fill-rule:nonzero;fill-opacity:1"
            d="M89.422 42.371 49.629 2.582a5.868 5.868 0 0 0-8.3 0l-8.263 8.262 10.48 10.484a6.965 6.965 0 0 1 7.173 1.668 6.98 6.98 0 0 1 1.656 7.215l10.102 10.105a6.963 6.963 0 0 1 7.214 1.657 6.976 6.976 0 0 1 0 9.875 6.98 6.98 0 0 1-9.879 0 6.987 6.987 0 0 1-1.519-7.594l-9.422-9.422v24.793a6.979 6.979 0 0 1 1.848 1.32 6.988 6.988 0 0 1 0 9.88c-2.73 2.726-7.153 2.726-9.875 0a6.98 6.98 0 0 1 0-9.88 6.893 6.893 0 0 1 2.285-1.523V34.398a6.893 6.893 0 0 1-2.285-1.523 6.988 6.988 0 0 1-1.508-7.637L29.004 14.902 1.719 42.187a5.868 5.868 0 0 0 0 8.301l39.793 39.793a5.868 5.868 0 0 0 8.3 0l39.61-39.605a5.873 5.873 0 0 0 0-8.305" />
    </g>
</svg>